<svg width="30.000000" height="30.000000" viewBox="0 0 30 30" fill="none" xmlns="http://www.w3.org/2000/svg" xmlns:xlink="http://www.w3.org/1999/xlink">
	<desc>
			Created with Pixso.
	</desc>
	<defs>
		<clipPath id="clip217_1895">
			<rect id="delete" width="30.000000" height="30.000000" fill="white" fill-opacity="0"/>
		</clipPath>
	</defs>
	<rect id="delete" width="30.000000" height="30.000000" fill="#FFFFFF" fill-opacity="0"/>
	<g clip-path="url(#clip217_1895)">
		<path id="Vector" d="M7.5 23.75C7.5 25.12 8.62 26.25 10 26.25L20 26.25C21.37 26.25 22.5 25.12 22.5 23.75L22.5 8.75L7.5 8.75L7.5 23.75ZM23.75 5L19.37 5L18.12 3.75L11.87 3.75L10.62 5L6.25 5L6.25 7.5L23.75 7.5L23.75 5Z" fill="#C9C9C9" fill-opacity="1.000000" fill-rule="nonzero"/>
		<path id="Vector" d="M19.37 5L18.12 3.75L11.87 3.75L10.62 5L6.25 5L6.25 7.5L23.75 7.5L23.75 5L19.37 5ZM22.75 6L18.96 6L18.66 5.7L17.71 4.75L12.28 4.75L11.03 6L7.25 6L7.25 6.5L22.75 6.5L22.75 6ZM20 25.25L10 25.25Q9.83 25.25 9.68 25.21Q9.54 25.18 9.42 25.13Q9.3 25.08 9.2 25.01Q9.06 24.92 8.94 24.8Q8.82 24.68 8.73 24.54Q8.66 24.44 8.61 24.32Q8.56 24.2 8.53 24.06Q8.5 23.91 8.5 23.75L8.5 9.75L21.5 9.75L21.5 23.75Q21.5 23.91 21.46 24.06Q21.43 24.2 21.38 24.32Q21.33 24.44 21.26 24.54Q21.17 24.68 21.05 24.8Q20.93 24.92 20.79 25.01Q20.69 25.08 20.57 25.13Q20.45 25.18 20.31 25.21Q20.16 25.25 20 25.25ZM22.5 9.75L22.5 23.75C22.5 25.12 21.37 26.25 20 26.25L10 26.25C8.62 26.25 7.5 25.12 7.5 23.75L7.5 8.75L22.5 8.75L22.5 9.75Z" fill="#C9C9C9" fill-opacity="1.000000" fill-rule="evenodd"/>
	</g>
</svg>
