<svg width="188" height="31" fill="none" xmlns="http://www.w3.org/2000/svg"><path d="M14.337 17.053c0 1.27-.308 2.373-.923 3.31-.615.938-1.514 1.66-2.695 2.168-1.172.508-2.598.762-4.278.762-.742 0-1.47-.049-2.182-.146a15.05 15.05 0 0 1-2.036-.425 12.69 12.69 0 0 1-1.846-.718v-4.219c1.016.45 2.07.855 3.164 1.216 1.094.361 2.178.542 3.252.542.742 0 1.338-.098 1.787-.293.46-.195.791-.464.996-.806.205-.341.308-.732.308-1.171 0-.538-.18-.997-.542-1.377-.362-.381-.86-.738-1.494-1.07a60.5 60.5 0 0 0-2.124-1.07 24.347 24.347 0 0 1-1.626-.849 9.513 9.513 0 0 1-1.67-1.245A6.004 6.004 0 0 1 1.124 9.89C.792 9.187.626 8.347.626 7.37c0-1.28.293-2.373.879-3.281.586-.908 1.42-1.602 2.505-2.08 1.094-.488 2.383-.733 3.867-.733 1.113 0 2.173.132 3.179.396a19.69 19.69 0 0 1 3.178 1.113l-1.464 3.53c-.987-.4-1.87-.708-2.652-.922a8.6 8.6 0 0 0-2.388-.337c-.566 0-1.05.092-1.45.278-.4.176-.703.43-.908.762a2.055 2.055 0 0 0-.308 1.128c0 .507.147.937.44 1.289.303.341.752.674 1.348.996a60.21 60.21 0 0 0 2.255 1.128c1.094.517 2.027 1.06 2.798 1.626.782.556 1.382 1.216 1.802 1.977.42.752.63 1.69.63 2.813ZM24.135.207v4.644c0 .81-.03 1.582-.088 2.314-.049.732-.088 1.25-.117 1.553h.234A4.861 4.861 0 0 1 25.41 7.34a5.129 5.129 0 0 1 1.612-.777 6.906 6.906 0 0 1 1.89-.249c1.181 0 2.211.21 3.09.63.88.41 1.563 1.06 2.051 1.949.488.878.732 2.021.732 3.427V23h-4.467v-9.565c0-1.172-.215-2.056-.645-2.652-.43-.595-1.094-.893-1.992-.893-.899 0-1.607.21-2.124.63-.518.41-.884 1.02-1.099 1.83-.215.801-.322 1.783-.322 2.945V23h-4.468V.207h4.468Zm31.932 14.575c0 1.367-.186 2.578-.557 3.633-.361 1.055-.893 1.948-1.596 2.68a6.714 6.714 0 0 1-2.52 1.641c-.977.371-2.08.557-3.31.557-1.153 0-2.213-.186-3.18-.557a7.065 7.065 0 0 1-2.504-1.64c-.703-.733-1.25-1.626-1.64-2.681-.382-1.055-.572-2.266-.572-3.633 0-1.816.322-3.354.967-4.614.644-1.26 1.562-2.217 2.754-2.871 1.191-.654 2.612-.982 4.262-.982 1.534 0 2.89.328 4.073.982 1.191.654 2.124 1.611 2.797 2.871.684 1.26 1.026 2.798 1.026 4.614Zm-11.323 0c0 1.074.117 1.978.351 2.71.235.733.6 1.284 1.099 1.655.498.372 1.147.557 1.948.557.791 0 1.43-.185 1.919-.556.498-.372.86-.923 1.084-1.656.234-.732.351-1.636.351-2.71 0-1.084-.117-1.982-.351-2.695-.225-.723-.586-1.265-1.084-1.626-.498-.361-1.148-.542-1.948-.542-1.182 0-2.041.405-2.578 1.216-.528.81-.791 2.026-.791 3.647Zm25.925-8.467c1.846 0 3.335.718 4.468 2.154 1.143 1.435 1.714 3.54 1.714 6.313 0 1.856-.268 3.418-.805 4.688-.538 1.26-1.28 2.212-2.227 2.856-.947.645-2.036.967-3.267.967-.79 0-1.47-.098-2.036-.293a5.235 5.235 0 0 1-1.45-.776 6.892 6.892 0 0 1-1.04-1.026h-.234a12.692 12.692 0 0 1 .234 2.402v6.607h-4.468V6.623h3.633l.63 2.124h.205c.293-.44.65-.845 1.07-1.216.42-.37.922-.664 1.508-.879.596-.224 1.284-.337 2.066-.337ZM69.234 9.89c-.781 0-1.401.16-1.86.483-.46.322-.796.806-1.011 1.45-.205.645-.317 1.46-.337 2.447v.483c0 1.055.098 1.948.293 2.68.205.733.542 1.29 1.01 1.67.48.381 1.134.572 1.964.572.683 0 1.245-.19 1.684-.572.44-.38.767-.937.982-1.67.224-.742.337-1.645.337-2.71 0-1.6-.25-2.807-.748-3.618-.498-.81-1.27-1.215-2.314-1.215Z" fill="#2D2D2D"/><path d="M102.133 12.263c0 1.65-.205 3.154-.616 4.511-.41 1.348-1.035 2.51-1.875 3.487-.83.976-1.884 1.728-3.164 2.256-1.279.517-2.793.776-4.54.776-1.749 0-3.262-.259-4.542-.776-1.279-.528-2.339-1.28-3.178-2.256-.83-.977-1.45-2.144-1.86-3.501-.41-1.358-.616-2.866-.616-4.527 0-2.216.361-4.145 1.084-5.786.732-1.65 1.855-2.93 3.37-3.838 1.513-.908 3.437-1.362 5.77-1.362 2.325 0 4.234.454 5.728 1.362 1.504.909 2.617 2.188 3.34 3.838.732 1.65 1.099 3.59 1.099 5.816Zm-15.63 0c0 1.494.185 2.783.556 3.867.381 1.074.972 1.904 1.773 2.49.8.576 1.836.864 3.105.864 1.29 0 2.334-.288 3.135-.864.8-.586 1.382-1.416 1.743-2.49.371-1.084.557-2.373.557-3.867 0-2.246-.42-4.014-1.26-5.303-.84-1.29-2.222-1.934-4.145-1.934-1.28 0-2.325.293-3.135.88-.8.575-1.392 1.406-1.773 2.49-.37 1.074-.556 2.363-.556 3.867Zm30.818-5.948c1.748 0 3.155.479 4.219 1.436 1.064.947 1.597 2.47 1.597 4.57V23h-4.468v-9.565c0-1.172-.215-2.056-.645-2.652-.42-.595-1.084-.893-1.992-.893-1.367 0-2.3.463-2.798 1.391-.498.928-.747 2.266-.747 4.014V23h-4.467V6.623h3.413l.6 2.095h.249a4.518 4.518 0 0 1 1.304-1.377 5.726 5.726 0 0 1 1.743-.777 7.96 7.96 0 0 1 1.992-.249ZM134.004 23h-4.468V.207h4.468V23Zm10.97-16.377V23h-4.468V6.623h4.468ZM142.747.207c.665 0 1.236.156 1.714.469.479.303.718.874.718 1.714 0 .83-.239 1.406-.718 1.728-.478.313-1.049.469-1.714.469-.673 0-1.25-.156-1.728-.469-.469-.322-.703-.898-.703-1.728 0-.84.234-1.411.703-1.714.478-.313 1.055-.469 1.728-.469Zm18.031 6.108c1.748 0 3.154.479 4.219 1.436 1.064.947 1.596 2.47 1.596 4.57V23h-4.467v-9.565c0-1.172-.215-2.056-.645-2.652-.42-.595-1.084-.893-1.992-.893-1.367 0-2.3.463-2.798 1.391-.498.928-.747 2.266-.747 4.014V23h-4.468V6.623h3.413l.601 2.095h.249a4.506 4.506 0 0 1 1.304-1.377 5.726 5.726 0 0 1 1.743-.777 7.948 7.948 0 0 1 1.992-.249Zm18.968 0c1.514 0 2.817.293 3.911.88a6 6 0 0 1 2.534 2.519c.596 1.103.894 2.451.894 4.043v2.168h-10.562c.049 1.26.425 2.25 1.128 2.973.713.713 1.699 1.07 2.959 1.07 1.045 0 2.002-.108 2.871-.323a14.613 14.613 0 0 0 2.681-.966v3.457c-.811.4-1.66.693-2.549.879-.879.185-1.948.278-3.208.278-1.641 0-3.096-.303-4.365-.908-1.26-.606-2.251-1.529-2.974-2.769-.713-1.24-1.069-2.802-1.069-4.687 0-1.914.322-3.506.967-4.776.654-1.279 1.562-2.236 2.724-2.87 1.162-.645 2.515-.968 4.058-.968Zm.029 3.18c-.869 0-1.592.277-2.168.834-.566.557-.893 1.43-.981 2.622h6.269c-.009-.664-.132-1.255-.366-1.772a2.754 2.754 0 0 0-1.025-1.23c-.45-.303-1.026-.455-1.729-.455Z" fill="#3670C7"/></svg>