<svg width="100" height="100" viewBox="0 0 100 100" fill="none" xmlns="http://www.w3.org/2000/svg">
<path d="M94.7002 15.0132H91.7705V17.9429H94.7002V15.0132Z" fill="black"/>
<path d="M89.8174 15.0132H86.8877V17.9429H89.8174V15.0132Z" fill="black"/>
<path d="M84.9346 15.0132H65.8215V17.9429H84.9346V15.0132Z" fill="black"/>
<path d="M84.9325 82.0576H72.1788V84.9873H84.9325V82.0576Z" fill="black"/>
<path d="M89.8174 82.0576H86.8877V84.9873H89.8174V82.0576Z" fill="black"/>
<path d="M94.7002 82.0576H91.7705V84.9873H94.7002V82.0576Z" fill="black"/>
<path d="M73.6729 72.4758H60.9192V75.4055H73.6729V72.4758Z" fill="black"/>
<path d="M78.5557 72.4758H75.626V75.4055H78.5557V72.4758Z" fill="black"/>
<path d="M83.4385 72.4758H80.5088V75.4055H83.4385V72.4758Z" fill="black"/>
<path d="M90.4951 24.1306H87.5654V27.0603H90.4951V24.1306Z" fill="black"/>
<path d="M85.6123 24.1306H82.6826V27.0603H85.6123V24.1306Z" fill="black"/>
<path d="M80.7295 24.1306H67.9758V27.0603H80.7295V24.1306Z" fill="black"/>
<path d="M71.6786 33.6089H58.9249V36.5386H71.6786V33.6089Z" fill="black"/>
<path d="M81.4463 33.6089H78.5166V36.5386H81.4463V33.6089Z" fill="black"/>
<path d="M76.5637 33.6089H73.634V36.5386H76.5637V33.6089Z" fill="black"/>
<path d="M14.6423 81.9326H11.7126V84.8623H14.6423V81.9326Z" fill="black"/>
<path d="M19.5251 81.9326H16.5955V84.8623H19.5251V81.9326Z" fill="black"/>
<path d="M9.75977 81.9326H6.83008V84.8623H9.75977V81.9326Z" fill="black"/>
<path d="M24.0896 72.4758H21.1599V75.4055H24.0896V72.4758Z" fill="black"/>
<path d="M33.8551 72.4758H30.9254V75.4055H33.8551V72.4758Z" fill="black"/>
<path d="M28.9723 72.4758H26.0426V75.4055H28.9723V72.4758Z" fill="black"/>
<path d="M48.1244 62.7141H45.1947V65.6438H48.1244V62.7141Z" fill="black"/>
<path d="M53.0072 62.7141H50.0775V65.6438H53.0072V62.7141Z" fill="black"/>
<path d="M57.89 62.7141H54.9603V65.6438H57.89V62.7141Z" fill="black"/>
<path d="M62.7727 62.7141H59.843V65.6438H62.7727V62.7141Z" fill="black"/>
<path d="M22.0819 24.1306H19.1522V27.0603H22.0819V24.1306Z" fill="black"/>
<path d="M26.9647 24.1306H24.035V27.0603H26.9647V24.1306Z" fill="black"/>
<path d="M17.1991 24.1306H14.2694V27.0603H17.1991V24.1306Z" fill="black"/>
<path d="M12.3163 24.1306H9.3866V27.0603H12.3163V24.1306Z" fill="black"/>
<path d="M0 10.312V22.6439H100V10.312H0ZM97.0703 19.7142H2.92969V17.9427H13.4775V15.013H2.92969V13.2417H97.0703V19.7142Z" fill="black"/>
<path d="M43.1973 77.356V70.5241H77.7346V67.5944H43.1973V60.7626H54.2973V57.8329H43.1973V51.0011H49.5768V56.0556H87.9885V51.0011H93.2619V57.8329H58.2037V60.7626H93.2617V67.5944H81.6408V70.5241H93.2617V74.9146H96.1914V25.0854H93.2617V28.5485H6.73828V25.0854H3.80859V74.9147H6.73828V70.5243H12.0129V77.3561H0V89.688H100V77.3561H43.1973V77.356ZM87.9885 31.4782H93.2619V38.3101H87.9885V31.4782ZM87.9885 41.2399H93.2619V48.0718H87.9885V41.2399ZM52.5064 31.4782H85.0588V53.1261H52.5064V31.4782ZM43.1973 31.4782H49.5768V38.3101H43.1973V31.4782ZM43.1973 41.2399H49.5768V48.0718H43.1973V41.2399ZM14.9424 65.6437H19.7184V62.714H14.9424V31.4782H40.2676V41.439H36.9146V44.3687H40.2676V77.356H14.9424V65.6437ZM6.73828 31.4782H12.0129V38.3101H6.73828V31.4782ZM6.73828 41.2399H12.0129V48.0718H6.73828V41.2399ZM6.73828 51.0013H12.0129V57.8331H6.73828V51.0013ZM6.73828 67.5946V60.7628H12.0129V67.5946H6.73828ZM97.0703 80.2856V86.7583H2.92969V80.2856H97.0703Z" fill="black"/>
<path d="M65.5265 48.0718H55.1166V51.0015H65.5265V48.0718Z" fill="black"/>
<path d="M37.3062 48.2554H34.3765V61.6732H37.3062V48.2554Z" fill="black"/>
<path d="M26.1073 33.6089H23.1776V36.5386H26.1073V33.6089Z" fill="black"/>
<path d="M36.9135 33.6089H28.0602V36.5386H36.9135V33.6089Z" fill="black"/>
<path d="M21.2245 33.6089H18.2948V36.5386H21.2245V33.6089Z" fill="black"/>
</svg>
