<svg width="307" height="197" viewBox="0 0 307 197" fill="none" xmlns="http://www.w3.org/2000/svg">
<path d="M179.118 60.584H171.918V125.384H179.118V149H124.686V125.384H131.598V74.984L107.118 149H85.8063L60.6063 75.704V125.384H67.5183V149H20.2863V125.384H27.4863V60.584H20.2863V36.968H86.2383L101.214 81.896L115.614 36.968H179.118V60.584ZM184.818 149V125.384H192.018V60.584H184.818V36.968H282.018V80.456H249.762V60.584H232.338V83.336H245.01V99.752H232.338V125.384H249.762V102.632H282.018V149H184.818Z" fill="white"/>
<rect x="1" y="6" width="120" height="2" fill="#C4C4C4"/>
<rect y="6" width="2" height="120" fill="#C4C4C4"/>
<rect x="185" y="165" width="120" height="2" fill="#C4C4C4"/>
<rect x="305" y="47" width="2" height="120" fill="#C4C4C4"/>
</svg>
